<svg width="144" height="22" viewBox="0 0 144 22" fill="none" xmlns="http://www.w3.org/2000/svg">
<path d="M140.846 15.4543C140.846 15.0872 140.697 14.7694 140.399 14.5011C140.116 14.2328 139.755 13.9856 139.316 13.7597C138.892 13.5337 138.422 13.3078 137.904 13.0818C137.402 12.8558 136.931 12.5946 136.491 12.298C136.068 11.9873 135.707 11.6272 135.409 11.2177C135.126 10.8081 134.985 10.3068 134.985 9.71363C134.985 9.28996 135.095 8.90866 135.315 8.56973C135.534 8.21667 135.832 7.9201 136.209 7.68002C136.586 7.43994 137.033 7.25635 137.551 7.12925C138.084 6.98803 138.657 6.91742 139.269 6.91742C140.116 6.91742 140.901 6.98097 141.623 7.10807C142.36 7.22105 143.003 7.38345 143.553 7.59529C143.49 8.0472 143.364 8.53442 143.176 9.05695C142.988 9.56535 142.807 10.0314 142.635 10.4551H141.834L140.846 8.29434C140.658 8.22373 140.461 8.18136 140.257 8.16724C140.053 8.139 139.826 8.12487 139.575 8.12487C139.104 8.12487 138.743 8.25198 138.492 8.50618C138.257 8.74626 138.139 9.02164 138.139 9.33233C138.139 9.68539 138.28 9.99608 138.563 10.2644C138.861 10.5186 139.222 10.7587 139.645 10.9846C140.085 11.2106 140.556 11.4365 141.058 11.6625C141.576 11.8885 142.046 12.1497 142.47 12.4463C142.909 12.7287 143.27 13.0677 143.553 13.4631C143.851 13.8585 144 14.3316 144 14.8824C144 15.8568 143.56 16.6265 142.682 17.1914C141.803 17.7421 140.626 18.0175 139.151 18.0175C138.398 18.0175 137.621 17.9469 136.821 17.8057C136.021 17.6645 135.33 17.4668 134.75 17.2126C134.781 16.7042 134.915 16.1887 135.15 15.6662C135.385 15.1436 135.636 14.6776 135.903 14.2681H136.703L137.857 16.5771C138.029 16.69 138.218 16.7606 138.422 16.7889C138.641 16.803 138.845 16.8101 139.033 16.8101C139.489 16.8101 139.904 16.69 140.281 16.45C140.658 16.2099 140.846 15.878 140.846 15.4543Z" fill="#414141"/>
<path d="M132.864 15.9839C132.739 16.224 132.535 16.4711 132.252 16.7253C131.986 16.9654 131.648 17.1843 131.24 17.382C130.848 17.5656 130.385 17.7139 129.852 17.8269C129.334 17.954 128.769 18.0175 128.157 18.0175C127.184 18.0175 126.321 17.8904 125.568 17.6362C124.815 17.3679 124.187 16.9937 123.685 16.5135C123.183 16.0192 122.798 15.4332 122.531 14.7553C122.28 14.0774 122.155 13.3148 122.155 12.4675C122.155 10.6598 122.681 9.2829 123.732 8.33671C124.783 7.39052 126.243 6.91742 128.11 6.91742C128.91 6.91742 129.655 7.01628 130.346 7.21399C131.052 7.4117 131.632 7.73651 132.088 8.18842C132.558 8.64034 132.88 9.23347 133.053 9.96783C133.241 10.7022 133.233 11.599 133.029 12.6581H125.803C125.819 13.7738 126.133 14.6635 126.745 15.3272C127.372 15.991 128.29 16.3229 129.498 16.3229C130.016 16.3229 130.55 16.2522 131.099 16.111C131.664 15.9698 132.103 15.7862 132.417 15.5603L132.864 15.9839ZM128.016 8.12487C127.702 8.12487 127.419 8.1743 127.168 8.27316C126.933 8.37201 126.721 8.5556 126.533 8.82393C126.36 9.07813 126.219 9.43119 126.109 9.8831C125.999 10.3209 125.921 10.8787 125.874 11.5566H129.663C129.773 10.4551 129.702 9.60771 129.451 9.01458C129.2 8.42144 128.722 8.12487 128.016 8.12487Z" fill="#414141"/>
<path d="M120.836 17.7633H114.34V16.9371C114.858 16.7112 115.375 16.5417 115.893 16.4287V3.59157L114.104 3.4221V2.59595C114.308 2.51121 114.591 2.42648 114.952 2.34175C115.313 2.25701 115.697 2.1864 116.105 2.12991C116.529 2.0593 116.945 2.00281 117.352 1.96044C117.776 1.90395 118.153 1.86159 118.482 1.83334H119.283V16.4287C119.8 16.5417 120.318 16.7112 120.836 16.9371V17.7633Z" fill="#414141"/>
<path d="M111.571 14.6917C111.571 15.0024 111.571 15.2707 111.571 15.4967C111.587 15.7227 111.61 15.9627 111.642 16.2169L113.266 16.4288V17.1702C113.077 17.2549 112.819 17.3397 112.489 17.4244C112.175 17.5091 111.838 17.5939 111.477 17.6786C111.132 17.7492 110.787 17.8057 110.441 17.8481C110.096 17.9046 109.79 17.9469 109.523 17.9752H108.723C108.566 17.6504 108.472 17.3255 108.441 17.0007C108.409 16.6759 108.386 16.2805 108.37 15.8145H108.252C108.174 16.0969 108.041 16.3723 107.852 16.6406C107.664 16.8948 107.421 17.1278 107.123 17.3397C106.84 17.5374 106.503 17.6998 106.11 17.8269C105.718 17.954 105.279 18.0175 104.792 18.0175C104.275 18.0175 103.796 17.9469 103.357 17.8057C102.917 17.6645 102.533 17.4668 102.203 17.2126C101.874 16.9584 101.615 16.6547 101.427 16.3017C101.238 15.9345 101.144 15.5249 101.144 15.073C101.144 14.4375 101.278 13.915 101.544 13.5055C101.811 13.0959 102.227 12.764 102.792 12.5098C103.372 12.2415 104.11 12.0438 105.004 11.9167C105.914 11.7896 107.013 11.6978 108.299 11.6413C108.425 10.4268 108.37 9.5371 108.135 8.97221C107.899 8.40732 107.389 8.12487 106.605 8.12487C106.118 8.12487 105.671 8.19549 105.263 8.33671L104.157 10.8787H103.121C102.996 10.7093 102.87 10.5186 102.745 10.3068C102.635 10.0808 102.525 9.84779 102.415 9.60771C102.321 9.35351 102.235 9.09931 102.156 8.84511C102.093 8.59091 102.046 8.34377 102.015 8.10369C102.611 7.73651 103.38 7.447 104.322 7.23517C105.263 7.02334 106.26 6.91742 107.311 6.91742C108.205 6.91742 108.935 7.00921 109.5 7.1928C110.065 7.36227 110.504 7.60235 110.818 7.91304C111.147 8.20961 111.375 8.56267 111.5 8.97221C111.626 9.38176 111.689 9.81955 111.689 10.2856C111.689 11.1329 111.665 11.9026 111.618 12.5946C111.587 13.2724 111.571 13.9715 111.571 14.6917ZM106.275 16.3229C106.605 16.3229 106.887 16.2664 107.123 16.1534C107.358 16.0404 107.554 15.9063 107.711 15.7509C107.884 15.5956 108.009 15.4261 108.088 15.2425C108.182 15.0589 108.252 14.8965 108.299 14.7553V12.6369C107.562 12.6511 106.958 12.6934 106.487 12.764C106.016 12.8347 105.648 12.9547 105.381 13.1242C105.114 13.2795 104.926 13.4843 104.816 13.7385C104.722 13.9786 104.675 14.2751 104.675 14.6282C104.675 15.1648 104.816 15.5814 105.098 15.878C105.381 16.1746 105.773 16.3229 106.275 16.3229Z" fill="#414141"/>
<path d="M96.645 15.4543C96.645 15.0872 96.496 14.7694 96.1978 14.5011C95.9154 14.2328 95.5545 13.9856 95.1151 13.7597C94.6915 13.5337 94.2207 13.3078 93.7029 13.0818C93.2008 12.8558 92.7301 12.5946 92.2907 12.298C91.867 11.9873 91.5061 11.6272 91.208 11.2177C90.9255 10.8081 90.7843 10.3068 90.7843 9.71363C90.7843 9.28996 90.8942 8.90866 91.1138 8.56973C91.3335 8.21667 91.6317 7.9201 92.0082 7.68002C92.3848 7.43994 92.832 7.25635 93.3499 7.12925C93.8834 6.98803 94.4561 6.91742 95.0681 6.91742C95.9154 6.91742 96.7 6.98097 97.4218 7.10807C98.1593 7.22105 98.8026 7.38345 99.3518 7.59529C99.289 8.0472 99.1635 8.53442 98.9752 9.05695C98.7869 9.56535 98.6065 10.0314 98.4339 10.4551H97.6336L96.645 8.29434C96.4568 8.22373 96.2606 8.18136 96.0566 8.16724C95.8526 8.139 95.6251 8.12487 95.374 8.12487C94.9033 8.12487 94.5424 8.25198 94.2913 8.50618C94.056 8.74626 93.9383 9.02164 93.9383 9.33233C93.9383 9.68539 94.0795 9.99608 94.362 10.2644C94.6601 10.5186 95.021 10.7587 95.4447 10.9846C95.884 11.2106 96.3548 11.4365 96.8569 11.6625C97.3747 11.8885 97.8454 12.1497 98.2691 12.4463C98.7085 12.7287 99.0694 13.0677 99.3518 13.4631C99.6499 13.8585 99.799 14.3316 99.799 14.8824C99.799 15.8568 99.3597 16.6265 98.4809 17.1914C97.6022 17.7421 96.4254 18.0175 94.9504 18.0175C94.1972 18.0175 93.4205 17.9469 92.6202 17.8057C91.8199 17.6645 91.1295 17.4668 90.549 17.2126C90.5803 16.7042 90.7137 16.1887 90.9491 15.6662C91.1844 15.1436 91.4355 14.6776 91.7023 14.2681H92.5025L93.6558 16.5771C93.8284 16.69 94.0167 16.7606 94.2207 16.7889C94.4404 16.803 94.6444 16.8101 94.8327 16.8101C95.2877 16.8101 95.7036 16.69 96.0802 16.45C96.4567 16.2099 96.645 15.878 96.645 15.4543Z" fill="#414141"/>
<path d="M86.5556 9.60779C86.3673 9.69252 86.1477 9.83374 85.8966 10.0315C85.6455 10.2292 85.418 10.554 85.214 11.0059V16.4288C85.5279 16.4571 85.8417 16.5136 86.1555 16.5983C86.4693 16.6689 86.7832 16.7819 87.097 16.9372V17.7634H80.2712V16.9372C80.5537 16.796 80.8204 16.6901 81.0715 16.6195C81.3226 16.5489 81.5736 16.4853 81.8247 16.4288V8.67572L80.2712 8.50625V7.6801C80.5223 7.58124 80.8283 7.48944 81.1892 7.40471C81.5658 7.31998 81.9502 7.24937 82.3425 7.19288C82.7348 7.12227 83.1114 7.06578 83.4723 7.02341C83.8489 6.98104 84.1627 6.94574 84.4138 6.91749H85.214V9.73489H85.3082C85.4337 9.4242 85.6142 9.09938 85.8495 8.76045C86.1006 8.42152 86.3909 8.11083 86.7204 7.82838C87.0499 7.54593 87.4108 7.31998 87.8031 7.15051C88.1954 6.98104 88.6034 6.90337 89.027 6.91749C89.1996 7.1152 89.3487 7.39765 89.4742 7.76483C89.5998 8.11789 89.7018 8.45682 89.7802 8.78163V9.60779H86.5556Z" fill="#414141"/>
<path d="M78.5269 15.9839C78.4013 16.224 78.1973 16.4711 77.9149 16.7253C77.6482 16.9654 77.3108 17.1843 76.9028 17.382C76.5105 17.5656 76.0476 17.7139 75.5141 17.8269C74.9963 17.954 74.4314 18.0175 73.8195 18.0175C72.8466 18.0175 71.9836 17.8904 71.2304 17.6362C70.4772 17.3679 69.8495 16.9937 69.3474 16.5135C68.8453 16.0192 68.4609 15.4332 68.1941 14.7553C67.943 14.0774 67.8175 13.3148 67.8175 12.4675C67.8175 10.6598 68.3432 9.2829 69.3945 8.33671C70.4458 7.39052 71.9051 6.91742 73.7724 6.91742C74.5726 6.91742 75.318 7.01628 76.0084 7.21399C76.7145 7.4117 77.2951 7.73651 77.7501 8.18842C78.2209 8.64034 78.5426 9.23347 78.7152 9.96783C78.9035 10.7022 78.8956 11.599 78.6916 12.6581H71.4658C71.4814 13.7738 71.7953 14.6635 72.4072 15.3272C73.0349 15.991 73.9528 16.3229 75.1611 16.3229C75.6789 16.3229 76.2124 16.2522 76.7616 16.111C77.3265 15.9698 77.7658 15.7862 78.0797 15.5603L78.5269 15.9839ZM73.6782 8.12487C73.3644 8.12487 73.082 8.1743 72.8309 8.27316C72.5955 8.37201 72.3837 8.5556 72.1954 8.82393C72.0228 9.07813 71.8816 9.43119 71.7717 9.8831C71.6619 10.3209 71.5834 10.8787 71.5364 11.5566H75.3258C75.4357 10.4551 75.3651 9.60771 75.114 9.01458C74.8629 8.42144 74.3843 8.12487 73.6782 8.12487Z" fill="#414141"/>
<path d="M59.7354 22H53.2391V21.1739C53.7726 20.9479 54.2905 20.7784 54.7926 20.6655V8.67564L53.2391 8.50618V7.68002C53.4902 7.58117 53.7962 7.48937 54.1571 7.40464C54.5337 7.3199 54.9181 7.24929 55.3104 7.1928C55.7027 7.12219 56.0793 7.0657 56.4402 7.02334C56.8168 6.98097 57.1306 6.94566 57.3817 6.91742H58.1819V9.28996H58.2055C58.4722 8.61209 58.888 8.0472 59.4529 7.59529C60.0335 7.14338 60.8338 6.91742 61.8537 6.91742C62.5441 6.91742 63.1639 7.02334 63.7131 7.23517C64.278 7.43288 64.7488 7.75063 65.1253 8.18842C65.5176 8.61209 65.8158 9.16286 66.0198 9.84073C66.2394 10.5045 66.3493 11.3024 66.3493 12.2345C66.3493 13.1242 66.2081 13.9291 65.9256 14.6494C65.6589 15.3696 65.2666 15.9769 64.7488 16.4711C64.2466 16.9654 63.6268 17.3467 62.8893 17.615C62.1675 17.8834 61.3437 18.0175 60.4179 18.0175C59.8844 18.0175 59.4608 17.9822 59.1469 17.9116C58.8488 17.8551 58.5271 17.7492 58.1819 17.5939V20.6655C58.433 20.6937 58.684 20.7431 58.9351 20.8137C59.1862 20.8985 59.4529 21.0185 59.7354 21.1739V22ZM60.4885 8.61209C59.955 8.61209 59.4765 8.78156 59.0528 9.12049C58.6448 9.45943 58.3545 9.98195 58.1819 10.6881V16.3229C58.433 16.4923 58.6997 16.6194 58.9822 16.7042C59.2646 16.7748 59.6334 16.8101 60.0884 16.8101C60.9828 16.8101 61.6419 16.4217 62.0655 15.645C62.4892 14.8683 62.701 13.7314 62.701 12.2345C62.701 11.0764 62.5363 10.1867 62.2068 9.56535C61.8929 8.92984 61.3202 8.61209 60.4885 8.61209Z" fill="#414141"/>
<path d="M39.7743 13.569C39.7743 12.6793 39.7978 11.8532 39.8449 11.0906C39.892 10.328 39.9155 9.52298 39.9155 8.67564L38.3621 8.50618V7.68002C38.6131 7.59529 38.9191 7.51056 39.28 7.42582C39.6566 7.34109 40.041 7.27048 40.4333 7.21399C40.8256 7.14338 41.2022 7.08689 41.5631 7.04452C41.9397 6.98803 42.2535 6.94566 42.5046 6.91742H43.3048C43.3048 7.97659 43.2813 9.02164 43.2342 10.0526C43.1872 11.0694 43.1636 12.0721 43.1636 13.0606C43.1636 14.2186 43.2892 15.0519 43.5402 15.5603C43.807 16.0687 44.2934 16.3229 44.9995 16.3229C45.4859 16.3229 45.9331 16.1605 46.3411 15.8356C46.7648 15.4967 47.11 14.9601 47.3768 14.2257V8.67564L45.8468 8.50618V7.68002C46.0822 7.59529 46.3725 7.51056 46.7177 7.42582C47.0786 7.34109 47.4474 7.27048 47.824 7.21399C48.2162 7.14338 48.6007 7.08689 48.9773 7.04452C49.3539 6.98803 49.6834 6.94566 49.9658 6.91742H50.7661V16.2593L52.3195 16.4288V17.1702C52.0999 17.2549 51.8253 17.3397 51.4957 17.4244C51.1662 17.5091 50.821 17.5939 50.4601 17.6786C50.0992 17.7492 49.7383 17.8057 49.3774 17.8481C49.0322 17.9046 48.7184 17.9469 48.4359 17.9752H47.6357L47.4709 15.4543H47.3768C47.2983 15.7509 47.1571 16.0545 46.9531 16.3652C46.7491 16.6618 46.4823 16.9372 46.1528 17.1914C45.839 17.4315 45.4624 17.6292 45.023 17.7845C44.5837 17.9399 44.0973 18.0175 43.5638 18.0175C42.9675 18.0175 42.434 17.9469 41.9632 17.8057C41.5082 17.6786 41.1159 17.4456 40.7864 17.1066C40.4569 16.7677 40.2058 16.3158 40.0332 15.7509C39.8606 15.1719 39.7743 14.4446 39.7743 13.569Z" fill="#414141"/>
<path d="M28.6739 16.0051C28.8465 16.1604 29.0897 16.3087 29.4036 16.4499C29.7174 16.577 30.1332 16.6406 30.651 16.6406C31.5141 16.6406 32.228 16.4429 32.7929 16.0475C33.3735 15.6379 33.6638 15.073 33.6638 14.3528C33.6638 13.8303 33.4755 13.3925 33.0989 13.0394C32.738 12.6864 32.2751 12.3615 31.7102 12.065C31.1453 11.7684 30.5412 11.4789 29.8979 11.1965C29.2545 10.8999 28.6504 10.5539 28.0855 10.1585C27.5206 9.76305 27.0499 9.29701 26.6733 8.76037C26.3124 8.2096 26.1319 7.53173 26.1319 6.72676C26.1319 6.03477 26.2731 5.43457 26.5556 4.92617C26.838 4.41777 27.2225 4.00116 27.7089 3.67635C28.211 3.33741 28.7995 3.09027 29.4742 2.93493C30.1489 2.76546 30.8786 2.68073 31.6631 2.68073C32.6203 2.68073 33.5069 2.74428 34.3228 2.87138C35.1545 2.98435 35.8998 3.16794 36.5588 3.42214C36.5431 3.70459 36.5118 4.0294 36.4647 4.39658C36.4333 4.76376 36.3862 5.13094 36.3235 5.49812C36.2607 5.85118 36.1901 6.19011 36.1116 6.51492C36.0489 6.82561 35.9861 7.08688 35.9233 7.29871H34.9583L33.8756 4.39658C33.6873 4.31185 33.4049 4.23418 33.0283 4.16356C32.6674 4.09295 32.2908 4.05765 31.8985 4.05765C31.2395 4.05765 30.6824 4.21299 30.2274 4.52368C29.7723 4.83437 29.5448 5.28628 29.5448 5.87942C29.5448 6.41607 29.7331 6.87504 30.1097 7.25634C30.4863 7.62352 30.957 7.96246 31.5219 8.27315C32.0868 8.58384 32.6988 8.89453 33.3578 9.20522C34.0325 9.50179 34.6523 9.84778 35.2172 10.2432C35.7821 10.6386 36.2529 11.1047 36.6294 11.6413C37.006 12.1638 37.1943 12.8135 37.1943 13.5902C37.1943 15.0024 36.6608 16.0969 35.5938 16.8736C34.5425 17.6362 32.989 18.0175 30.9335 18.0175C30.4314 18.0175 29.9214 17.9893 29.4036 17.9328C28.9014 17.8763 28.4229 17.7986 27.9678 17.6998C27.5128 17.6009 27.1048 17.495 26.7439 17.382C26.3987 17.269 26.1398 17.149 25.9672 17.0219C25.9829 16.6971 26.0221 16.3511 26.0848 15.9839C26.1476 15.6026 26.2104 15.2284 26.2731 14.8612C26.3516 14.4799 26.4301 14.1198 26.5085 13.7808C26.587 13.4419 26.6654 13.1453 26.7439 12.8911H27.7089L28.6739 16.0051Z" fill="#414141"/>
<path fill-rule="evenodd" clip-rule="evenodd" d="M19.4754 8.48952V0.0220942C15.8754 -0.132349 9.78928 0.478205 6.36776 3.27865C3.80347 5.37748 6.52306 8.48952 9.83676 8.48952H19.4754ZM8.10973e-07 11.1464L0 19.6139C3.59999 19.7683 9.68613 19.1578 13.1076 16.3573C15.6719 14.2585 12.9524 11.1464 9.63865 11.1464L8.10973e-07 11.1464Z" fill="#FFDD2D"/>
</svg>
